<svg width="165" height="45" viewBox="0 0 165 45" fill="none" xmlns="http://www.w3.org/2000/svg">
<path d="M115.323 39.5911C115.323 40.0188 115.22 40.1206 114.791 40.1206H114.606C114.177 40.1206 114.074 40.0188 114.074 39.5911V34.8934C114.074 32.9926 115.036 31.7979 117.547 31.7979C120.057 31.7979 121.005 32.9723 121.005 34.8934V39.5911C121.005 40.0188 120.903 40.1206 120.473 40.1206H120.275C119.845 40.1206 119.743 40.0188 119.743 39.5911V34.8934C119.743 33.6715 119.327 32.9723 117.547 32.9723C115.766 32.9723 115.316 33.6647 115.316 34.8934V39.5911H115.323Z" fill="#7E4082"/>
<path d="M104.994 36.8146V35.2736C104.994 33.1216 106.024 31.7979 108.651 31.7979C111.277 31.7979 112.273 33.0877 112.273 35.2736V36.8146C112.273 38.9666 111.257 40.2903 108.651 40.2903C106.045 40.2903 104.994 39.0005 104.994 36.8146ZM111.031 35.2736C111.031 33.7665 110.547 32.9723 108.657 32.9723C106.768 32.9723 106.249 33.7665 106.249 35.2736V36.8146C106.249 38.3013 106.747 39.1159 108.657 39.1159C110.568 39.1159 111.031 38.3081 111.031 36.8146V35.2736Z" fill="#7E4082"/>
<path d="M102.389 28.6074C102.839 28.6074 103.187 28.974 103.187 29.4153C103.187 29.8565 102.839 30.2095 102.389 30.2095C101.939 30.2095 101.557 29.8633 101.557 29.4153C101.557 28.9672 101.925 28.6074 102.389 28.6074ZM101.754 32.4973C101.754 32.0696 101.857 31.9678 102.287 31.9678H102.471C102.901 31.9678 103.003 32.0696 103.003 32.4973V39.5981C103.003 40.0258 102.901 40.1276 102.471 40.1276H102.287C101.857 40.1276 101.754 40.0258 101.754 39.5981V32.4973Z" fill="#7E4082"/>
<path d="M99.7568 38.9324C99.4567 39.0139 98.8427 39.0953 98.2765 39.0953C97.3624 39.0953 96.7484 38.7016 96.7484 37.3439V33.1418H99.443C99.8592 33.1418 99.9615 33.0399 99.9615 32.6258V32.4765C99.9615 32.0624 99.8592 31.9606 99.443 31.9606H96.7484V30.2566C96.7484 29.8901 96.6665 29.8086 96.2982 29.8086H95.9502C95.5819 29.8086 95.5 29.8901 95.5 30.2566V37.3371C95.5 39.523 96.6665 40.263 98.2901 40.263C99.0405 40.263 99.4703 40.1611 99.7364 40.1C100.166 39.9846 100.255 39.8217 100.255 39.5026V39.3533C100.255 38.9392 100.139 38.8238 99.7568 38.9256V38.9324Z" fill="#7E4082"/>
<path d="M93.5069 37.6699C93.5069 39.5232 92.4086 40.2835 90.0346 40.2835C88.2541 40.2835 86.9102 39.6046 86.9102 37.7989C86.9102 35.9931 88.1244 35.3822 90.3006 35.3822H92.2653V34.391C92.2653 33.203 91.3989 32.884 90.0891 32.884C89.291 32.884 88.5269 32.9994 88.2609 33.0673C87.8652 33.1691 87.7288 33.0537 87.7288 32.6532V32.5174C87.7288 32.1237 87.8447 32.0354 88.2268 31.9539C88.4792 31.9064 89.0727 31.791 90.0209 31.791C92.0675 31.791 93.5137 32.4223 93.5137 34.391V37.6699H93.5069ZM92.2585 36.3597H90.3143C88.868 36.3597 88.1517 36.7263 88.1517 37.7989C88.1517 38.8715 89.0522 39.2041 90.0141 39.2041C91.4126 39.2041 92.2585 38.9394 92.2585 37.6156V36.3597Z" fill="#7E4082"/>
<path d="M80.1494 35.2261C80.1494 33.1556 81.2272 31.8047 83.8536 31.8047C84.604 31.8047 85.1157 31.954 85.3135 32.0219C85.7296 32.1577 85.8115 32.2867 85.8115 32.6533V32.8162C85.8115 33.2303 85.7092 33.3457 85.3135 33.2167C84.9997 33.1013 84.5017 32.9859 83.8809 32.9859C81.9367 32.9859 81.3841 33.7802 81.3841 35.2533V36.8554C81.3841 38.5593 82.1686 39.1227 83.9764 39.1227C84.6245 39.1227 85.1703 39.0073 85.4704 38.9055C85.8729 38.7765 85.9684 38.9055 85.9684 39.3196V39.4825C85.9684 39.8491 85.832 39.9645 85.4363 40.0799C85.1703 40.1614 84.5563 40.2972 83.8877 40.2972C81.3296 40.2972 80.1289 39.2042 80.1289 36.8757V35.2397L80.1494 35.2261Z" fill="#7E4082"/>
<path d="M72.7689 37.194C72.7689 38.4159 73.2192 39.1151 74.9997 39.1151C76.7802 39.1151 77.2099 38.4227 77.2099 37.194V32.4963C77.2099 32.0686 77.3123 31.9668 77.742 31.9668H77.9262C78.356 31.9668 78.4583 32.0686 78.4583 32.4963V37.194C78.4583 39.1151 77.5442 40.2896 74.9997 40.2896C72.4551 40.2896 71.5273 39.1016 71.5273 37.194V32.4963C71.5273 32.0686 71.6297 31.9668 72.0594 31.9668H72.2436C72.6734 31.9668 72.7757 32.0686 72.7757 32.4963V37.194H72.7689Z" fill="#7E4082"/>
<path d="M69.7603 36.8279C69.7603 39.0749 68.5665 40.2833 66.1175 40.2833C63.6684 40.2833 62.4746 39.0749 62.4746 36.8279V35.2869C62.4746 33.1553 63.4228 31.7976 65.9128 31.7976C67.3113 31.7976 68.089 32.2592 68.5051 33.0059V29.0686C68.5051 28.6409 68.6074 28.5391 69.0372 28.5391H69.2214C69.6512 28.5391 69.7535 28.6409 69.7535 29.0686V36.8279H69.7603ZM63.723 36.8143C63.723 38.301 64.1869 39.1156 66.1175 39.1156C68.0481 39.1156 68.5119 38.3078 68.5119 36.8143V35.2733C68.5119 33.7662 68.0276 32.972 66.1175 32.972C64.2074 32.972 63.723 33.7662 63.723 35.2733V36.8143Z" fill="#7E4082"/>
<path d="M60.7963 36C60.7486 36.4277 60.6326 36.5159 60.196 36.5159H55.1751V37.0115C55.1751 38.5321 55.9597 39.116 57.7674 39.116C58.7634 39.116 59.6639 38.8987 60.0255 38.8037C60.4416 38.6883 60.5576 38.8173 60.5576 39.2314V39.3807C60.5576 39.693 60.5098 39.8423 60.0391 39.9781C59.5207 40.1275 58.7566 40.2904 57.7606 40.2904C55.2024 40.2904 53.9199 39.3128 53.9199 36.835V35.294C53.9199 33.2914 54.7658 31.8047 57.4264 31.8047C59.6025 31.8047 60.8373 32.8976 60.8373 35.1107C60.8373 35.4434 60.8236 35.7896 60.7895 36.0068L60.7963 36ZM55.1751 35.4705H59.6639V34.9274C59.6639 33.4883 58.7975 32.9112 57.4195 32.9112C56.0415 32.9112 55.1751 33.4883 55.1751 34.9274V35.4705Z" fill="#7E4082"/>
<path d="M164.938 17.7318C164.754 19.1099 164.365 19.3814 162.98 19.3814H155.326V19.8295C155.326 21.3908 156.472 22.1104 159.276 22.1104C160.845 22.1104 162.352 21.8117 162.925 21.6895C164.249 21.418 164.522 21.7778 164.522 23.1287V23.4613C164.522 24.8123 164.249 25.0838 162.925 25.4097C162.352 25.559 160.933 25.7966 159.248 25.7966C153.914 25.7966 151.383 23.8754 151.383 19.2321V16.8357C151.383 12.9662 153.163 10.0879 158.402 10.0879C162.803 10.0879 164.999 12.3077 164.999 16.5642C164.999 16.8018 164.999 17.1955 164.938 17.7318ZM155.326 16.2044H161.261V15.7563C161.261 14.2561 160.265 13.4754 158.28 13.4754C156.295 13.4754 155.326 14.2561 155.326 15.7563V16.2044Z" fill="#7E4082"/>
<path d="M139.111 23.7532C139.111 25.1041 138.777 25.43 137.426 25.43H136.853C135.495 25.43 135.168 25.0973 135.168 23.7532V16.1364C135.168 12.2059 137.487 10.0811 142.038 10.0811C146.588 10.0811 148.846 12.1176 148.846 16.1364V23.7532C148.846 25.1041 148.512 25.43 147.161 25.43H146.588C145.23 25.43 144.903 25.0973 144.903 23.7532V16.1364C144.903 14.609 144.514 13.7672 142.038 13.7672C139.561 13.7672 139.118 14.609 139.118 16.1364V23.7532H139.111Z" fill="#7E4082"/>
<path d="M130.262 3.60449C131.558 3.60449 132.615 4.68387 132.615 5.94654C132.615 7.20921 131.558 8.28859 130.262 8.28859C128.966 8.28859 127.908 7.23637 127.908 5.94654C127.908 4.65672 128.966 3.60449 130.262 3.60449ZM128.304 12.1241C128.304 10.7732 128.638 10.4474 129.989 10.4474H130.535C131.892 10.4474 132.22 10.78 132.22 12.1241V23.7597C132.22 25.1106 131.885 25.4365 130.535 25.4365H129.989C128.631 25.4365 128.304 25.1038 128.304 23.7597V12.1241Z" fill="#7E4082"/>
<path d="M119.776 6.12306C119.776 4.77214 120.111 4.44629 121.461 4.44629H122.007C123.365 4.44629 123.692 4.77893 123.692 6.12306V20.0396C123.692 21.601 124.115 22.049 125.016 22.049H125.166C125.95 22.049 126.189 22.2323 126.189 23.4271V23.9973C126.189 25.1989 125.95 25.5247 125.166 25.6741C125.016 25.7012 124.893 25.7352 124.258 25.7352C121.7 25.7352 119.77 24.3232 119.77 20.9085V6.12306H119.776Z" fill="#7E4082"/>
<path d="M116.148 21.8997C115.848 21.9607 115.09 22.0829 114.04 22.0829C112.894 22.0829 112.143 21.5738 112.143 20.0735V14.1335H115.581C116.939 14.1335 117.266 13.8009 117.266 12.4568V12.1241C117.266 10.7732 116.932 10.4474 115.581 10.4474H112.143V8.10531C112.143 6.84264 111.843 6.54395 110.574 6.54395H109.79C108.521 6.54395 108.221 6.84264 108.221 8.10531V10.4474V20.0464C108.221 24.425 110.69 25.7759 114.04 25.7759C115.097 25.7759 115.759 25.6877 116.148 25.5994C117.471 25.3279 117.805 24.8187 117.805 23.4678V23.1352C117.805 21.7842 117.471 21.6688 116.148 21.9064V21.8997Z" fill="#7E4082"/>
<path d="M53.9258 9.21196C53.9258 4.71115 56.3953 3.48242 59.7448 3.48242C60.4679 3.48242 61.0137 3.54352 61.2797 3.57067C62.6373 3.75396 62.9647 4.22916 62.9647 5.58008V5.87878C62.9647 7.2297 62.6305 7.37905 61.2797 7.2297C61.0069 7.20255 60.7067 7.16861 60.045 7.16861C58.7215 7.16861 57.8483 7.5895 57.8483 8.87932V10.4407H60.9796C62.3371 10.4407 62.6646 10.7733 62.6646 12.1175V12.4501C62.6646 13.801 62.3303 14.1269 60.9796 14.1269H57.8483V23.753C57.8483 25.104 57.5141 25.4298 56.1633 25.4298H55.6176C54.26 25.4298 53.9326 25.0972 53.9326 23.753V9.21196H53.9258Z" fill="#7E4082"/>
<path d="M94.9997 23.7532C94.9997 25.1041 94.6654 25.43 93.3147 25.43H92.7416C91.3841 25.43 91.0566 25.0973 91.0566 23.7532V16.1364C91.0566 12.2059 93.3761 10.0811 97.9262 10.0811C102.476 10.0811 104.734 12.1176 104.734 16.1364V23.7532C104.734 25.1041 104.4 25.43 103.049 25.43H102.476C101.119 25.43 100.791 25.0973 100.791 23.7532V16.1364C100.791 14.609 100.403 13.7672 97.9262 13.7672C95.4499 13.7672 95.0065 14.609 95.0065 16.1364V23.7532H94.9997Z" fill="#7E4082"/>
<path d="M74.1113 19.137V16.7406C74.1113 12.4503 76.6422 10.0811 81.3425 10.0811C86.2815 10.0811 88.5122 12.3009 88.5122 16.7406V19.137C88.5122 23.4273 86.0427 25.7966 81.3425 25.7966C76.4035 25.7966 74.1113 23.5767 74.1113 19.137ZM84.5692 16.7406C84.5692 14.8195 84.0576 13.774 81.3425 13.774C78.6274 13.774 78.0612 14.8263 78.0612 16.7406V19.137C78.0612 21.0581 78.6342 22.1036 81.3425 22.1036C84.0508 22.1036 84.5692 21.0514 84.5692 19.137V16.7406Z" fill="#7E4082"/>
<path d="M68.5114 23.7532C68.5114 25.1041 68.1771 25.43 66.8264 25.43H66.2534C64.8958 25.43 64.5684 25.0973 64.5684 23.7532V15.539C64.5684 12.0022 66.7104 10.0811 70.8376 10.0811H71.1719C72.3794 10.0811 72.7068 10.6513 72.7068 12.0022V12.3349C72.7068 13.6858 72.4067 13.8623 71.1719 13.774H70.8376C68.8798 13.774 68.5182 14.4936 68.5182 15.8445V23.76L68.5114 23.7532Z" fill="#7E4082"/>
<path d="M126.088 37.5131C126.088 37.0107 125.795 36.7595 125.215 36.7595H124.908C124.444 36.7595 124.239 36.9632 124.239 37.4248V39.0744C124.239 39.2306 124.287 39.2781 124.444 39.2781H124.499C124.655 39.2781 124.703 39.2306 124.703 39.0744V38.287H125.085L125.522 39.0948C125.604 39.2442 125.672 39.2849 125.842 39.2849H125.89C125.979 39.2849 126.033 39.2781 126.061 39.2374C126.088 39.1966 126.061 39.1423 126.027 39.0676L125.563 38.2462C125.904 38.1512 126.081 37.9068 126.081 37.5199L126.088 37.5131ZM125.604 37.5266C125.604 37.7439 125.535 37.8661 125.167 37.8661H124.703V37.418C124.703 37.2483 124.765 37.1872 124.935 37.1872H125.201C125.488 37.1872 125.597 37.2823 125.597 37.5266H125.604Z" fill="#402B56"/>
<path d="M125.106 35.748C123.85 35.748 122.834 36.7663 122.834 38.0222C122.834 39.2781 123.85 40.2896 125.106 40.2896C126.361 40.2896 127.391 39.2713 127.391 38.0222C127.391 36.7731 126.368 35.748 125.106 35.748ZM125.106 39.9162C124.055 39.9162 123.209 39.0676 123.209 38.0222C123.209 36.9768 124.062 36.1214 125.106 36.1214C126.149 36.1214 127.016 36.9768 127.016 38.0222C127.016 39.0676 126.156 39.9162 125.106 39.9162Z" fill="#402B56"/>
<path d="M33.2906 0H15.929C7.12883 0 0 7.09404 0 15.8513V30.7929C0 38.2535 6.07827 44.2953 13.5687 44.2953C18.112 44.2953 22.4371 42.3674 25.466 38.9934L42.3773 20.1484C49.3561 12.3484 43.7894 0 33.2906 0ZM15.1513 36.278H11.4198C9.65291 36.278 8.22033 34.8524 8.22033 33.0942C8.22033 31.336 9.65291 29.9104 11.4198 29.9104H15.1513C16.9182 29.9104 18.3508 31.336 18.3508 33.0942C18.3508 34.8524 16.9182 36.278 15.1513 36.278ZM34.5254 13.2852H15.9699C14.5237 13.2852 13.3504 14.4528 13.3504 15.892V16.9035C13.3504 18.3427 14.5237 19.5103 15.9699 19.5103H26.5302C28.297 19.5103 29.7296 20.9359 29.7296 22.6941C29.7296 24.4524 28.297 25.878 26.5302 25.878H15.9699C10.9968 25.878 6.95146 21.8524 6.95146 16.9035V15.892C6.95146 10.9431 10.9968 6.91753 15.9699 6.91753H34.5254C36.2922 6.91753 37.7248 8.34313 37.7248 10.1014C37.7248 11.8596 36.2922 13.2852 34.5254 13.2852Z" fill="#402B56"/>
</svg>
